:SAMPLES-PER-SECOND 30
:FULLY-SPECIFIED
:DEGREES
84
root  -1.20172 33.22 -3.26804 84.2136 -85.2445 -91.7397
RightUpLeg  -23.8405 -14.4935 -14.8388
RightLeg  57.2413 2.2802 3.38184
RightFoot  -18.4612 1.32466 23.0178
RightToes  -6.40286e-010 0 -3.6325e-017
Spine  27.9113 -3.04945 -3.91754
Spine1  -7.55 -4.07272 2.38929
HEad  -16.9108 20.0678 7.02244
LeftShoulder1  1.81975 -4.52059 -15.9166
LeftArm  -6.21132 16.6823 -48.2052
LeftForeArm  4.16809 -6.1006 -13.5097
LeftHand  -0.71689 0.0419148 15.5934
RightShoulder  0.200529 -2.38577 10.8394
RightArm  -35.9431 -31.8588 13.7899
RightForeArm  -12.042 26.2487 6.2421
RightHand  -0.85113 0.900885 -15.7734
LeftUpLeg  -22.0534 10.3763 32.7432
LeftLeg  61.8336 -1.15863 -1.84716
LeftFoot  -8.67685 0.797915 -31.1997
LeftToes  -2.09187e-010 -4.93792e-011 -8.21189e-011
85
root  -1.25064 32.64 -2.85644 12.5028 -87.189 -19.9898
RightUpLeg  -24.7046 -14.0145 -20.8438
RightLeg  60.9248 1.09268 1.61982
RightFoot  -19.4268 1.52764 23.1989
RightToes  -6.40286e-010 0 -3.6325e-017
Spine  29.1826 -3.34094 -0.432148
Spine1  -8.81991 -2.91254 -3.63096
HEad  -19.4888 15.0769 6.91785
LeftShoulder1  1.71102 -4.10919 -15.693
LeftArm  -13.8922 22.1242 -50.9092
LeftForeArm  -3.0153 -5.07068 -12.5602
LeftHand  -0.646644 0.180799 14.4704
RightShoulder  -0.116808 -4.31173 6.70791
RightArm  -35.8744 -29.7623 4.08487
RightForeArm  -12.6088 25.1211 6.01761
RightHand  -0.947883 0.84042 -17.6973
LeftUpLeg  -25.7035 13.8299 30.538
LeftLeg  66.0581 -6.12358 -13.9856
LeftFoot  -6.99121 1.3718 -34.071
LeftToes  -2.09187e-010 -4.93792e-011 -8.21189e-011
86
root  -1.29153 32.2916 -2.26693 -39.7897 -84.2024 32.1427
RightUpLeg  -24.6255 -12.4993 -26.3489
RightLeg  62.5707 0.0627055 -0.417054
RightFoot  -19.3211 1.53273 23.5585
RightToes  -6.40286e-010 0 -3.6325e-017
Spine  29.8527 -3.2972 3.14498
Spine1  -9.51517 -1.49139 -9.44087
HEad  -21.27 10.5062 6.93939
LeftShoulder1  1.53057 -3.55664 -14.818
LeftArm  -19.933 27.5306 -53.2573
LeftForeArm  -9.59324 -3.23752 -11.1006
LeftHand  -0.602204 0.553464 14.4838
RightShoulder  -0.282172 -6.21494 2.1344
RightArm  -36.6339 -25.0223 -3.95254
RightForeArm  -12.6951 22.2467 5.22103
RightHand  -1.00076 0.871585 -18.5812
LeftUpLeg  -26.746 15.7418 29.6076
LeftLeg  66.2247 -8.57057 -19.7663
LeftFoot  -5.249 1.94775 -34.8119
LeftToes  -2.09187e-010 -4.93792e-011 -8.21189e-011
87
root  -1.36589 32.2088 -1.57133 -47.4185 -80.7407 39.7977
RightUpLeg  -23.5085 -11.2985 -31.1472
RightLeg  62.2974 -0.809556 -2.22332
RightFoot  -18.502 1.40713 24.1749
RightToes  -6.40286e-010 0 -3.6325e-017
Spine  29.7908 -2.66171 5.96859
Spine1  -10.0316 0.0554766 -13.5
HEad  -21.7275 6.11846 6.76234
LeftShoulder1  1.28206 -2.71753 -13.6375
LeftArm  -24.1469 32.0782 -54.7502
LeftForeArm  -14.3274 0.00951448 -9.33084
LeftHand  -0.556452 1.02312 14.7803
RightShoulder  -0.268613 -7.64694 -2.29644
RightArm  -37.2098 -17.8616 -10.6217
RightForeArm  -13.9576 18.2971 3.64832
RightHand  -0.943366 0.715155 -17.9478
LeftUpLeg  -25.9502 15.8343 29.7201
LeftLeg  60.8574 -6.94355 -13.0211
LeftFoot  -0.965893 2.89884 -31.4881
LeftToes  -2.09187e-010 -4.93792e-011 -8.21189e-011
88
root  -1.48345 32.2966 -0.644002 -47.0066 -77.356 39.7621
RightUpLeg  -21.1745 -11.1757 -35.6917
RightLeg  60.2187 -1.37979 -3.1253
RightFoot  -17.117 1.19974 25.729
RightToes  -6.40286e-010 0 -3.6325e-017
Spine  29.266 -1.76548 9.01303
Spine1  -11.3125 1.55941 -15.9644
HEad  -20.6517 1.20032 6.31298
LeftShoulder1  1.01377 -1.81296 -11.9392
LeftArm  -27.7039 36.1519 -54.6218
LeftForeArm  -17.5562 3.27802 -7.44271
LeftHand  -0.440073 2.01201 15.0109
RightShoulder  -0.156754 -8.67774 -6.17171
RightArm  -36.986 -9.98866 -16.1331
RightForeArm  -17.0605 14.4413 2.28792
RightHand  -0.777813 0.108527 -16.4276
LeftUpLeg  -24.6427 14.2549 29.7144
LeftLeg  51.943 -0.904596 -0.862045
LeftFoot  8.36643 3.93609 -23.0223
LeftToes  -2.09187e-010 -4.93792e-011 -8.21189e-011
89
root  -1.62108 32.5377 0.516341 -44.7681 -74.2323 38.1462
RightUpLeg  -17.8494 -11.3702 -39.9611
RightLeg  56.2661 -2.02743 -3.70058
RightFoot  -14.6456 0.722979 28.0734
RightToes  -6.40286e-010 0 -3.6325e-017
Spine  28.6221 -0.586371 12.5721
Spine1  -13.3293 3.19123 -18.3727
HEad  -18.9938 -4.42983 5.83671
LeftShoulder1  0.752321 -0.953053 -9.49715
LeftArm  -30.2822 39.8487 -52.5095
LeftForeArm  -21.1758 4.65082 -5.61273
LeftHand  -0.2957 3.24287 15.6305
RightShoulder  -0.00746997 -9.60593 -9.46333
RightArm  -37.257 -2.92462 -19.7088
RightForeArm  -19.4564 11.4069 2.11735
RightHand  -0.626219 -0.60483 -15.1815
LeftUpLeg  -22.7408 11.6706 29.3619
LeftLeg  41.6355 2.95945 3.43591
LeftFoot  19.6841 4.06567 -14.8941
LeftToes  -2.09187e-010 -4.93792e-011 -8.21189e-011
90
root  -1.76278 32.9834 1.80418 -42.2418 -71.7814 36.7262
RightUpLeg  -14.1119 -11.262 -43.1419
RightLeg  50.3277 -3.64129 -5.03684
RightFoot  -10.7763 -0.22801 30.403
RightToes  -6.40286e-010 0 -3.6325e-017
Spine  27.8967 1.13166 16.0771
Spine1  -15.5261 5.12836 -21.2738
HEad  -17.8464 -10.2158 5.22328
LeftShoulder1  0.459162 0.323769 -6.73133
LeftArm  -30.729 42.3664 -48.4829
LeftForeArm  -24.8355 4.24039 -4.46434
LeftHand  -0.21928 3.94576 16.9179
RightShoulder  0.155062 -10.3173 -12.1951
RightArm  -37.8779 2.61732 -21.0779
RightForeArm  -19.3897 9.25166 2.69797
RightHand  -0.560005 -0.876428 -14.3656
LeftUpLeg  -20.3471 8.08907 28.8547
LeftLeg  30.7926 -0.772244 -0.0359953
LeftFoot  28.3958 4.87395 -13.8173
LeftToes  -2.09187e-010 -4.93792e-011 -8.21189e-011
91
root  -1.90405 33.5227 3.36481 -37.7333 -70.2695 34.2416
RightUpLeg  -10.3099 -11.0897 -44.8503
RightLeg  42.4215 -6.89441 -6.96266
RightFoot  -5.38848 -1.78714 32.682
RightToes  -6.40286e-010 0 -3.6325e-017
Spine  26.6886 3.3432 19.9938
Spine1  -18.2069 7.25156 -23.7552
HEad  -16.9037 -15.7226 3.8139
LeftShoulder1  0.154078 2.22722 -4.03661
LeftArm  -28.8088 43.0319 -43.2503
LeftForeArm  -26.1153 3.81185 -4.23595
LeftHand  -0.236324 3.93216 18.2242
RightShoulder  0.288071 -10.517 -14.267
RightArm  -37.9269 6.47364 -21.3105
RightForeArm  -17.6316 7.63087 3.40667
RightHand  -0.529495 -0.82349 -13.4259
LeftUpLeg  -18.956 2.91506 28.4262
LeftLeg  22.6041 -6.13627 -2.57572
LeftFoot  31.4131 7.14215 -18.6664
LeftToes  -2.09187e-010 -4.93792e-011 -8.21189e-011
92
root  -2.04445 34.0775 5.19213 -31.3579 -69.3067 30.8154
RightUpLeg  -6.47003 -10.5797 -45.6001
RightLeg  32.8 -12.4903 -8.64917
RightFoot  2.34751 -4.28766 34.7503
RightToes  -6.40286e-010 0 -3.6325e-017
Spine  25.0186 6.11713 24.0601
Spine1  -21.6066 9.4626 -25.6957
HEad  -15.327 -20.848 1.29959
LeftShoulder1  -0.0644353 4.19028 -1.06356
LeftArm  -26.3069 42.2009 -38.1616
LeftForeArm  -23.9659 4.0641 -4.39607
LeftHand  -0.290023 3.66457 19.0926
RightShoulder  0.354583 -10.2582 -15.5464
RightArm  -37.5837 8.78228 -21.4123
RightForeArm  -16.2611 6.27691 3.88085
RightHand  -0.496904 -0.798994 -12.5343
LeftUpLeg  -19.3545 -1.62833 27.6092
LeftLeg  18.8746 -4.53285 -1.40894
LeftFoot  28.4407 9.05632 -25.2671
LeftToes  -2.09187e-010 -4.93792e-011 -8.21189e-011
93
root  -2.16589 34.5593 7.09662 -25.3788 -68.7444 27.9522
RightUpLeg  -2.85317 -9.80348 -46.0363
RightLeg  22.2773 -19.7986 -9.16384
RightFoot  13.0836 -7.68678 35.0036
RightToes  -6.40286e-010 0 -3.6325e-017
Spine  23.5248 9.16004 27.3119
Spine1  -24.9296 11.6707 -27.2126
HEad  -13.9871 -25.0851 -1.32052
LeftShoulder1  -0.149788 5.85851 2.38903
LeftArm  -24.601 40.7109 -33.9082
LeftForeArm  -20.3658 4.08805 -4.51224
LeftHand  -0.325689 3.51431 19.8003
RightShoulder  0.348002 -9.77729 -15.8731
RightArm  -37.6444 9.75865 -21.3569
RightForeArm  -16.7612 5.26763 3.86271
RightHand  -0.473843 -0.930502 -12.2926
LeftUpLeg  -20.303 -1.40187 25.688
LeftLeg  18.4052 -0.683636 0.0797929
LeftFoot  20.9212 9.38038 -32.2386
LeftToes  -2.09187e-010 -4.93792e-011 -8.21189e-011
94
root  -2.22647 34.8707 8.87569 -21.1987 -68.7941 26.1224
RightUpLeg  0.0232843 -14.0854 -46.193
RightLeg  11.6223 -22.4829 -8.28494
RightFoot  25.1707 -10.4916 31.7496
RightToes  -6.40286e-010 0 -3.6325e-017
Spine  22.8494 11.5323 29.0724
Spine1  -27.313 13.4177 -27.8094
HEad  -15.2125 -27.6085 -2.26759
LeftShoulder1  -0.149871 7.56603 5.46152
LeftArm  -23.0475 38.8714 -29.5823
LeftForeArm  -17.9505 3.5182 -4.66563
LeftHand  -0.345536 3.47034 20.5608
RightShoulder  0.275826 -9.09997 -15.1583
RightArm  -37.9513 9.63318 -20.6875
RightForeArm  -19.0675 4.63916 3.46006
RightHand  -0.462567 -1.11467 -12.4951
LeftUpLeg  -20.7802 4.18914 22.9752
LeftLeg  18.9675 -2.89957 -0.789895
LeftFoot  11.6668 7.74851 -37.0547
LeftToes  -2.09187e-010 -4.93792e-011 -8.21189e-011
95
root  -2.18774 35.0361 10.3491 -18.5294 -69.0876 24.7879
RightUpLeg  1.81199 -23.7316 -46.2914
RightLeg  3.07179 -19.0686 -6.61581
RightFoot  34.7501 -10.8054 25.6586
RightToes  -6.40286e-010 0 -3.6325e-017
Spine  23.102 12.4744 29.2145
Spine1  -28.5739 14.2087 -27.3211
HEad  -19.8467 -28.1946 -0.976478
LeftShoulder1  -0.124473 9.37757 7.2739
LeftArm  -21.0659 36.4848 -24.279
LeftForeArm  -17.2587 3.39465 -4.81341
LeftHand  -0.362992 3.45294 21.4308
RightShoulder  0.172084 -8.23756 -13.6865
RightArm  -37.4153 8.75713 -19.0858
RightForeArm  -22.169 3.91876 3.10771
RightHand  -0.43895 -1.29254 -12.3444
LeftUpLeg  -21.9704 12.5377 20.1924
LeftLeg  21.1719 -10.2422 -4.07077
LeftFoot  5.28543 5.37536 -35.7906
LeftToes  -2.09187e-010 -4.93792e-011 -8.21189e-011
